<svg width="112" height="53" viewBox="0 0 112 53" fill="none" xmlns="http://www.w3.org/2000/svg">
<path d="M16.626 28.2852C16.626 29.4896 16.4307 30.6289 16.04 31.7031C15.6494 32.7773 15.0879 33.7214 14.3555 34.5352C13.6393 35.3327 12.7686 35.9674 11.7432 36.4395C10.7178 36.9277 9.57845 37.1719 8.3252 37.1719C7.21842 37.1719 6.19303 36.9928 5.24902 36.6348C4.32129 36.293 3.51562 35.8047 2.83203 35.1699C2.14844 34.5352 1.61133 33.762 1.2207 32.8506C0.846354 31.9391 0.65918 30.9219 0.65918 29.7988C0.65918 29.571 0.667318 29.2861 0.683594 28.9443C0.69987 28.6025 0.748698 28.277 0.830078 27.9678C0.927734 27.6423 1.05794 27.3737 1.2207 27.1621C1.39974 26.9342 1.65202 26.8203 1.97754 26.8203C2.23796 26.8203 2.52279 26.8773 2.83203 26.9912C3.15755 27.0889 3.45866 27.2272 3.73535 27.4062C4.01204 27.5853 4.23991 27.805 4.41895 28.0654C4.61426 28.3096 4.71191 28.5781 4.71191 28.8711V30.2871C4.71191 31.4102 5.01302 32.3298 5.61523 33.0459C6.23372 33.7458 7.12077 34.0957 8.27637 34.0957C9.09017 34.0957 9.79004 33.9085 10.376 33.5342C10.9619 33.1598 11.4339 32.6797 11.792 32.0938C12.1663 31.5078 12.4349 30.8568 12.5977 30.1406C12.7767 29.4082 12.8662 28.6921 12.8662 27.9922C12.8662 26.625 12.5814 25.2985 12.0117 24.0127C11.4583 22.7269 10.7585 21.4736 9.91211 20.2529C9.06576 19.016 8.14616 17.8034 7.15332 16.6152C6.16048 15.4271 5.24089 14.2471 4.39453 13.0752C3.54818 11.9033 2.84017 10.7314 2.27051 9.55957C1.71712 8.3877 1.44043 7.19141 1.44043 5.9707C1.44043 4.97786 1.63574 4.12337 2.02637 3.40723C2.43327 2.6748 2.96224 2.08073 3.61328 1.625C4.2806 1.15299 5.0293 0.811198 5.85938 0.599609C6.70573 0.371745 7.5765 0.257812 8.47168 0.257812C9.56217 0.257812 10.5387 0.412435 11.4014 0.72168C12.264 1.03092 12.9964 1.47852 13.5986 2.06445C14.2008 2.65039 14.6566 3.37467 14.9658 4.2373C15.2913 5.08366 15.4541 6.05208 15.4541 7.14258C15.4541 7.30534 15.446 7.50879 15.4297 7.75293C15.4134 7.99707 15.3727 8.24121 15.3076 8.48535C15.2425 8.71322 15.1449 8.91667 15.0146 9.0957C14.8844 9.25846 14.7054 9.33984 14.4775 9.33984C14.152 9.33984 13.8265 9.25846 13.501 9.0957C13.2243 8.94922 12.9964 8.81087 12.8174 8.68066C12.6546 8.53418 12.5244 8.37956 12.4268 8.2168C12.3291 8.03776 12.2559 7.84245 12.207 7.63086C12.1582 7.41927 12.1175 7.15885 12.085 6.84961C12.0036 6.26367 11.8978 5.7347 11.7676 5.2627C11.6374 4.79069 11.4421 4.39193 11.1816 4.06641C10.9212 3.74089 10.5794 3.48861 10.1562 3.30957C9.73307 3.13053 9.18783 3.04102 8.52051 3.04102C8.0485 3.04102 7.59277 3.08984 7.15332 3.1875C6.73014 3.28516 6.35579 3.44792 6.03027 3.67578C5.72103 3.90365 5.46875 4.20475 5.27344 4.5791C5.0944 4.93717 5.00488 5.38477 5.00488 5.92188C5.00488 6.67057 5.16764 7.43555 5.49316 8.2168C5.83496 8.99805 6.27441 9.79557 6.81152 10.6094C7.36491 11.4232 7.9834 12.2614 8.66699 13.124C9.36686 13.9704 10.083 14.8493 10.8154 15.7607C11.5479 16.6722 12.2559 17.6162 12.9395 18.5928C13.6393 19.5531 14.2578 20.554 14.7949 21.5957C15.3483 22.6374 15.7878 23.7197 16.1133 24.8428C16.4551 25.9495 16.626 27.097 16.626 28.2852ZM29.8096 34.6816C29.8096 35.0072 29.7038 35.2432 29.4922 35.3896C29.2806 35.5361 29.0202 35.6094 28.7109 35.6094C28.5156 35.6094 28.3122 35.5931 28.1006 35.5605C27.889 35.5117 27.6855 35.4629 27.4902 35.4141C27.1484 35.3164 26.8799 35.1943 26.6846 35.0479C26.5055 34.9014 26.3672 34.7386 26.2695 34.5596C26.1719 34.3643 26.1068 34.1527 26.0742 33.9248C26.0579 33.6969 26.0417 33.4447 26.0254 33.168C26.0254 33.0866 26.0173 33.0133 26.001 32.9482C26.001 32.8831 26.001 32.818 26.001 32.7529C25.9521 31.8252 25.9033 30.873 25.8545 29.8965C25.8219 28.9199 25.8057 27.9678 25.8057 27.04C25.8057 26.568 25.8057 26.096 25.8057 25.624C25.8219 25.152 25.8382 24.68 25.8545 24.208C25.8708 23.736 25.8789 23.2721 25.8789 22.8164C25.8952 22.3444 25.9033 21.8724 25.9033 21.4004C25.9033 21.3027 25.8952 21.2132 25.8789 21.1318C25.8789 21.0342 25.8708 20.9365 25.8545 20.8389C25.4313 21.4574 25.057 22.1491 24.7314 22.9141C24.4222 23.6628 24.1455 24.444 23.9014 25.2578C23.6572 26.0553 23.4456 26.861 23.2666 27.6748C23.1038 28.4723 22.9655 29.2373 22.8516 29.9697L22.7783 30.4824C22.6969 31.0521 22.6156 31.638 22.5342 32.2402C22.4528 32.8262 22.4121 33.4121 22.4121 33.998C22.4121 34.2422 22.4528 34.5107 22.5342 34.8037C22.5667 34.9339 22.5911 35.0641 22.6074 35.1943C22.64 35.3083 22.6562 35.4548 22.6562 35.6338C22.6562 36.0244 22.5586 36.2848 22.3633 36.415C22.168 36.5615 21.9076 36.6348 21.582 36.6348C21.3867 36.6348 21.167 36.6185 20.9229 36.5859C20.695 36.5534 20.4671 36.4964 20.2393 36.415C20.0277 36.3499 19.8242 36.2604 19.6289 36.1465C19.4336 36.0326 19.279 35.8861 19.165 35.707C19.0674 35.4954 18.9697 34.9339 18.8721 34.0225C18.7907 33.111 18.7093 31.9798 18.6279 30.6289C18.5628 29.278 18.4977 27.7643 18.4326 26.0879C18.3675 24.3952 18.3024 22.6618 18.2373 20.8877C18.1885 19.1136 18.1396 17.3558 18.0908 15.6143C18.0583 13.8727 18.0257 12.2695 17.9932 10.8047C17.9769 9.33984 17.9606 8.07031 17.9443 6.99609C17.9281 5.9056 17.9199 5.14062 17.9199 4.70117C17.9199 4.37565 17.9606 4.08268 18.042 3.82227C18.1396 3.54557 18.4001 3.40723 18.8232 3.40723C19.2627 3.40723 19.6777 3.51302 20.0684 3.72461C20.459 3.91992 20.7438 4.22917 20.9229 4.65234C20.9554 4.71745 20.988 4.986 21.0205 5.45801C21.0531 5.91374 21.0856 6.50781 21.1182 7.24023C21.1507 7.95638 21.1833 8.78646 21.2158 9.73047C21.2484 10.6582 21.2809 11.6266 21.3135 12.6357C21.346 13.6286 21.3786 14.6296 21.4111 15.6387C21.4437 16.6478 21.4762 17.5918 21.5088 18.4707L21.6309 22.084C21.8262 21.5794 22.0703 21.0505 22.3633 20.4971C22.6562 19.9437 22.9899 19.4391 23.3643 18.9834C23.7549 18.5277 24.1862 18.1533 24.6582 17.8604C25.1465 17.5674 25.6836 17.4209 26.2695 17.4209C26.9857 17.4209 27.5472 17.6081 27.9541 17.9824C28.361 18.3568 28.6621 18.8206 28.8574 19.374C29.069 19.9274 29.1992 20.5215 29.248 21.1562C29.2969 21.791 29.3213 22.3688 29.3213 22.8896C29.3213 23.2152 29.3132 23.5326 29.2969 23.8418C29.2969 24.151 29.2887 24.4603 29.2725 24.7695C29.2562 25.0951 29.2399 25.4206 29.2236 25.7461C29.2236 26.0553 29.2236 26.3727 29.2236 26.6982C29.2236 27.8213 29.248 28.9769 29.2969 30.165C29.3457 31.3369 29.4678 32.4925 29.6631 33.6318L29.7119 33.9736C29.7445 34.0713 29.7689 34.1852 29.7852 34.3154C29.8014 34.4456 29.8096 34.5677 29.8096 34.6816ZM42.5293 25.9902C42.5293 27.4062 42.4072 28.8223 42.1631 30.2383C41.9352 31.638 41.4551 32.9645 40.7227 34.2178C40.4948 34.5921 40.2344 34.9583 39.9414 35.3164C39.6484 35.6582 39.3229 35.9674 38.9648 36.2441C38.623 36.5371 38.2406 36.765 37.8174 36.9277C37.4105 37.1068 36.9792 37.1963 36.5234 37.1963C35.8073 37.1963 35.1807 37.0254 34.6436 36.6836C34.1227 36.3581 33.667 35.9268 33.2764 35.3896C32.902 34.8363 32.5846 34.2178 32.3242 33.5342C32.0801 32.8343 31.8848 32.1263 31.7383 31.4102C31.6081 30.6777 31.5104 29.9697 31.4453 29.2861C31.3965 28.6025 31.3721 28.0003 31.3721 27.4795C31.3721 26.8936 31.3965 26.2507 31.4453 25.5508C31.4941 24.8509 31.5755 24.1348 31.6895 23.4023C31.8197 22.6699 31.9824 21.9456 32.1777 21.2295C32.3893 20.5133 32.6579 19.846 32.9834 19.2275C33.3089 18.5928 33.6995 18.0312 34.1553 17.543C34.611 17.0384 35.14 16.6396 35.7422 16.3467V16.3711C36.263 16.0944 36.7839 15.9561 37.3047 15.9561C37.6302 15.9561 37.8825 16.0293 38.0615 16.1758C38.2406 16.306 38.3219 16.5339 38.3057 16.8594C39.2008 17.0221 39.9251 17.4535 40.4785 18.1533C41.0319 18.8532 41.4551 19.667 41.748 20.5947C42.0573 21.5225 42.2607 22.4746 42.3584 23.4512C42.4723 24.4277 42.5293 25.2741 42.5293 25.9902ZM37.0117 19.8867C36.735 19.8867 36.4746 19.7809 36.2305 19.5693C35.9212 20.0413 35.6608 20.5866 35.4492 21.2051C35.2376 21.8073 35.0667 22.4339 34.9365 23.085C34.8226 23.7197 34.7412 24.3626 34.6924 25.0137C34.6436 25.6647 34.6191 26.2751 34.6191 26.8447C34.6191 27.3167 34.6436 27.9271 34.6924 28.6758C34.7412 29.4082 34.8307 30.1488 34.9609 30.8975C35.1074 31.6462 35.3027 32.346 35.5469 32.9971C35.8073 33.6481 36.141 34.1283 36.5479 34.4375C37.0524 34.1445 37.4674 33.6807 37.793 33.0459C38.1348 32.3949 38.4033 31.6868 38.5986 30.9219C38.7939 30.1569 38.9242 29.3838 38.9893 28.6025C39.0706 27.8213 39.1113 27.154 39.1113 26.6006C39.1113 26.1937 39.0869 25.6647 39.0381 25.0137C38.9893 24.3626 38.9079 23.7035 38.7939 23.0361C38.68 22.3525 38.5173 21.7178 38.3057 21.1318C38.1104 20.5459 37.8581 20.1064 37.5488 19.8135C37.4023 19.8623 37.2233 19.8867 37.0117 19.8867ZM54.9316 25.9902C54.9316 27.4062 54.8096 28.8223 54.5654 30.2383C54.3376 31.638 53.8574 32.9645 53.125 34.2178C52.8971 34.5921 52.6367 34.9583 52.3438 35.3164C52.0508 35.6582 51.7253 35.9674 51.3672 36.2441C51.0254 36.5371 50.6429 36.765 50.2197 36.9277C49.8128 37.1068 49.3815 37.1963 48.9258 37.1963C48.2096 37.1963 47.583 37.0254 47.0459 36.6836C46.5251 36.3581 46.0693 35.9268 45.6787 35.3896C45.3044 34.8363 44.987 34.2178 44.7266 33.5342C44.4824 32.8343 44.2871 32.1263 44.1406 31.4102C44.0104 30.6777 43.9128 29.9697 43.8477 29.2861C43.7988 28.6025 43.7744 28.0003 43.7744 27.4795C43.7744 26.8936 43.7988 26.2507 43.8477 25.5508C43.8965 24.8509 43.9779 24.1348 44.0918 23.4023C44.222 22.6699 44.3848 21.9456 44.5801 21.2295C44.7917 20.5133 45.0602 19.846 45.3857 19.2275C45.7113 18.5928 46.1019 18.0312 46.5576 17.543C47.0133 17.0384 47.5423 16.6396 48.1445 16.3467V16.3711C48.6654 16.0944 49.1862 15.9561 49.707 15.9561C50.0326 15.9561 50.2848 16.0293 50.4639 16.1758C50.6429 16.306 50.7243 16.5339 50.708 16.8594C51.6032 17.0221 52.3275 17.4535 52.8809 18.1533C53.4342 18.8532 53.8574 19.667 54.1504 20.5947C54.4596 21.5225 54.6631 22.4746 54.7607 23.4512C54.8747 24.4277 54.9316 25.2741 54.9316 25.9902ZM49.4141 19.8867C49.1374 19.8867 48.877 19.7809 48.6328 19.5693C48.3236 20.0413 48.0632 20.5866 47.8516 21.2051C47.64 21.8073 47.4691 22.4339 47.3389 23.085C47.2249 23.7197 47.1436 24.3626 47.0947 25.0137C47.0459 25.6647 47.0215 26.2751 47.0215 26.8447C47.0215 27.3167 47.0459 27.9271 47.0947 28.6758C47.1436 29.4082 47.2331 30.1488 47.3633 30.8975C47.5098 31.6462 47.7051 32.346 47.9492 32.9971C48.2096 33.6481 48.5433 34.1283 48.9502 34.4375C49.4548 34.1445 49.8698 33.6807 50.1953 33.0459C50.5371 32.3949 50.8057 31.6868 51.001 30.9219C51.1963 30.1569 51.3265 29.3838 51.3916 28.6025C51.473 27.8213 51.5137 27.154 51.5137 26.6006C51.5137 26.1937 51.4893 25.6647 51.4404 25.0137C51.3916 24.3626 51.3102 23.7035 51.1963 23.0361C51.0824 22.3525 50.9196 21.7178 50.708 21.1318C50.5127 20.5459 50.2604 20.1064 49.9512 19.8135C49.8047 19.8623 49.6257 19.8867 49.4141 19.8867ZM62.1094 35.3896C62.1094 35.5687 62.0687 35.7233 61.9873 35.8535C61.9059 35.9674 61.8001 36.057 61.6699 36.1221C61.556 36.1872 61.4258 36.2279 61.2793 36.2441C61.1491 36.2767 61.0189 36.293 60.8887 36.293C60.7096 36.293 60.498 36.2686 60.2539 36.2197C60.026 36.1872 59.7982 36.1302 59.5703 36.0488C59.3424 35.9674 59.1309 35.8698 58.9355 35.7559C58.7565 35.6257 58.6182 35.471 58.5205 35.292C58.4229 35.1292 58.3333 34.8281 58.252 34.3887C58.1868 33.9329 58.1299 33.4121 58.0811 32.8262C58.0322 32.224 57.9915 31.5892 57.959 30.9219C57.9264 30.2383 57.8939 29.5872 57.8613 28.9688C57.8451 28.3503 57.8288 27.7969 57.8125 27.3086C57.8125 26.804 57.8125 26.4297 57.8125 26.1855C57.8125 25.0462 57.8288 23.9476 57.8613 22.8896C57.9102 21.8154 57.959 20.7168 58.0078 19.5938C57.9264 19.5938 57.8451 19.6019 57.7637 19.6182C57.6823 19.6344 57.6009 19.6426 57.5195 19.6426C57.3079 19.6751 57.0882 19.6995 56.8604 19.7158C56.6488 19.7321 56.429 19.7402 56.2012 19.7402C55.9245 19.7402 55.6803 19.6914 55.4688 19.5938C55.2572 19.4961 55.1514 19.2764 55.1514 18.9346C55.1514 18.5277 55.2409 18.2021 55.4199 17.958C55.599 17.7139 55.8268 17.5267 56.1035 17.3965C56.3802 17.25 56.6813 17.1523 57.0068 17.1035C57.3324 17.0384 57.6497 16.9896 57.959 16.957C58.0078 16.957 58.0404 16.957 58.0566 16.957C58.0729 16.9408 58.1055 16.9326 58.1543 16.9326C58.1706 16.7373 58.1868 16.5013 58.2031 16.2246C58.2194 15.9316 58.2357 15.6143 58.252 15.2725C58.2682 14.7354 58.2926 14.1657 58.3252 13.5635C58.3577 12.945 58.3903 12.359 58.4229 11.8057C58.4554 11.236 58.4961 10.7396 58.5449 10.3164C58.5938 9.87695 58.6426 9.56771 58.6914 9.38867C58.7728 9.17708 58.8623 9.00618 58.96 8.87598C59.0739 8.74577 59.2773 8.68066 59.5703 8.68066C60.2214 8.68066 60.7259 8.89225 61.084 9.31543C61.4421 9.73861 61.6211 10.2594 61.6211 10.8779C61.6211 11.5941 61.5967 12.3102 61.5479 13.0264C61.5153 13.7425 61.4827 14.4668 61.4502 15.1992L61.377 16.4443C61.7839 16.3955 62.1908 16.3223 62.5977 16.2246C62.9883 16.1432 63.3789 16.07 63.7695 16.0049C64.1764 15.9398 64.5671 15.9072 64.9414 15.9072C65.2669 15.9072 65.5192 15.9967 65.6982 16.1758C65.8773 16.3385 65.9668 16.5827 65.9668 16.9082C65.9668 17.2663 65.9017 17.6162 65.7715 17.958C65.6413 18.2998 65.4134 18.5602 65.0879 18.7393H65.1123C65.0472 18.7718 64.8519 18.8206 64.5264 18.8857C64.2008 18.9346 63.8265 18.9834 63.4033 19.0322C62.9964 19.0811 62.5895 19.1299 62.1826 19.1787C61.792 19.2275 61.499 19.2601 61.3037 19.2764H61.2793C61.2467 20.1878 61.2223 21.0911 61.2061 21.9863C61.1898 22.8652 61.1816 23.7604 61.1816 24.6719C61.1816 25.9251 61.2142 27.2598 61.2793 28.6758C61.3607 30.0755 61.4909 31.4102 61.6699 32.6797L61.8652 33.7783C61.9303 34.055 61.9873 34.3317 62.0361 34.6084C62.085 34.8688 62.1094 35.1292 62.1094 35.3896ZM84.1797 35.6826C84.1797 36.0081 84.0983 36.2279 83.9355 36.3418C83.7728 36.472 83.5449 36.5371 83.252 36.5371C82.487 36.5371 81.9336 36.3337 81.5918 35.9268C81.2663 35.5199 81.0221 34.9827 80.8594 34.3154C80.8105 34.0876 80.7617 33.8597 80.7129 33.6318C80.6641 33.3877 80.6234 33.1517 80.5908 32.9238C80.5583 32.7122 80.5257 32.5658 80.4932 32.4844C80.4606 32.403 80.4281 32.2484 80.3955 32.0205C80.2002 32.4925 79.9561 32.9889 79.6631 33.5098C79.3864 34.0143 79.0609 34.4863 78.6865 34.9258C78.3122 35.349 77.889 35.6989 77.417 35.9756C76.9613 36.2523 76.4567 36.3906 75.9033 36.3906C75.3174 36.3906 74.8291 36.2523 74.4385 35.9756C74.0479 35.6826 73.7386 35.3245 73.5107 34.9014C73.2992 34.4619 73.1445 33.9818 73.0469 33.4609C72.9655 32.9401 72.9248 32.4437 72.9248 31.9717C72.9248 30.8649 73.0306 29.6686 73.2422 28.3828C73.4701 27.0807 73.7793 25.7868 74.1699 24.501C74.5605 23.1989 75.0163 21.9538 75.5371 20.7656C76.0579 19.5612 76.6276 18.5114 77.2461 17.6162V17.6406L77.3926 17.4209C77.5716 17.1768 77.7751 16.9163 78.0029 16.6396C78.2471 16.3467 78.5319 16.2002 78.8574 16.2002C79.1667 16.2002 79.4352 16.3385 79.6631 16.6152C79.891 16.8757 80.0537 17.1523 80.1514 17.4453C80.5745 17.5267 80.9163 17.6325 81.1768 17.7627C81.4372 17.8766 81.6406 18.0231 81.7871 18.2021C81.9336 18.3812 82.0312 18.5928 82.0801 18.8369C82.1289 19.0648 82.1533 19.3171 82.1533 19.5938C82.1533 19.7077 82.1533 19.8298 82.1533 19.96C82.1533 20.0902 82.1452 20.2204 82.1289 20.3506C82.1126 20.4808 82.1045 20.6354 82.1045 20.8145C82.1045 20.9935 82.1045 21.1562 82.1045 21.3027C82.1045 21.4655 82.1289 21.6771 82.1777 21.9375C82.2428 22.1979 82.3079 22.4665 82.373 22.7432L82.5439 23.6465C82.6253 24.1185 82.6904 24.6556 82.7393 25.2578C82.8044 25.86 82.8776 26.4622 82.959 27.0645C83.0241 27.6829 83.0892 28.2852 83.1543 28.8711C83.2194 29.4408 83.2845 29.9697 83.3496 30.458L83.9355 34.0713L84.0088 34.4863C84.0413 34.6979 84.0739 34.8932 84.1064 35.0723C84.1553 35.2513 84.1797 35.4548 84.1797 35.6826ZM78.5889 21.6445C78.5889 21.612 78.5807 21.5632 78.5645 21.498C78.5482 21.4167 78.5319 21.3353 78.5156 21.2539C78.1413 22.0514 77.8076 22.9222 77.5146 23.8662C77.238 24.7939 77.002 25.7461 76.8066 26.7227C76.6276 27.6829 76.4893 28.6514 76.3916 29.6279C76.3102 30.5882 76.2695 31.4997 76.2695 32.3623C76.2695 32.4437 76.2695 32.5169 76.2695 32.582C76.2695 32.6471 76.2777 32.7122 76.2939 32.7773V32.8018C76.6846 32.1995 77.0182 31.4102 77.2949 30.4336C77.5879 29.4408 77.832 28.4072 78.0273 27.333C78.2227 26.2425 78.361 25.1927 78.4424 24.1836C78.54 23.1582 78.5889 22.3118 78.5889 21.6445ZM89.1357 29.6523C89.1357 30.4336 89.1276 31.1497 89.1113 31.8008C89.1113 32.4518 89.1276 33.168 89.1602 33.9492L89.5996 33.6318L89.8682 33.4609C90.6657 32.8262 91.3574 32.0531 91.9434 31.1416C92.5456 30.2139 93.042 29.2292 93.4326 28.1875C93.8232 27.1458 94.1081 26.0798 94.2871 24.9893C94.4824 23.8825 94.5801 22.8327 94.5801 21.8398C94.5801 21.6445 94.5719 21.376 94.5557 21.0342C94.5557 20.6761 94.5231 20.3262 94.458 19.9844C94.3929 19.6426 94.2952 19.3496 94.165 19.1055C94.0348 18.8451 93.8477 18.7148 93.6035 18.7148C93.2129 18.7148 92.8141 18.9508 92.4072 19.4229C92.0003 19.8949 91.6178 20.4564 91.2598 21.1074C90.918 21.7585 90.6087 22.4176 90.332 23.085C90.0553 23.736 89.8519 24.2487 89.7217 24.623C89.7217 24.6393 89.7135 24.6475 89.6973 24.6475C89.6973 24.6475 89.6973 24.6556 89.6973 24.6719V24.6963C89.5996 24.9242 89.4938 25.1683 89.3799 25.4287C89.2822 25.6891 89.2171 25.9333 89.1846 26.1611C89.152 26.389 89.1276 26.6494 89.1113 26.9424C89.0951 27.2191 89.0869 27.512 89.0869 27.8213C89.0869 27.984 89.0869 28.1468 89.0869 28.3096C89.1032 28.4561 89.1113 28.5944 89.1113 28.7246C89.1113 28.9036 89.1113 29.0745 89.1113 29.2373C89.1276 29.3838 89.1357 29.5221 89.1357 29.6523ZM90.4785 51.9668C90.4785 52.3249 90.3809 52.569 90.1855 52.6992C89.9902 52.8294 89.7298 52.8945 89.4043 52.8945C89.0137 52.8945 88.5824 52.8294 88.1104 52.6992C87.6383 52.5853 87.264 52.3656 86.9873 52.04C86.9059 51.9261 86.8245 51.5924 86.7432 51.0391C86.6781 50.4857 86.613 49.8346 86.5479 49.0859C86.4827 48.3535 86.4258 47.5885 86.377 46.791C86.3281 46.0098 86.2793 45.318 86.2305 44.7158L86.1328 43.4219C85.9375 39.9388 85.8398 36.4557 85.8398 32.9727C85.8398 30.9382 85.8724 28.9443 85.9375 26.9912C86.0189 25.0218 86.1003 23.028 86.1816 21.0098L86.2793 18.4463C86.2793 18.1859 86.2793 17.9336 86.2793 17.6895C86.2956 17.429 86.3281 17.1768 86.377 16.9326C86.4583 16.721 86.556 16.5583 86.6699 16.4443C86.8001 16.3141 87.0036 16.249 87.2803 16.249C87.9801 16.249 88.4928 16.4606 88.8184 16.8838C89.1439 17.2907 89.3311 17.7952 89.3799 18.3975C89.9007 17.6813 90.5192 17.1117 91.2354 16.6885C91.9678 16.2653 92.806 16.0537 93.75 16.0537C94.5475 16.0537 95.2148 16.2327 95.752 16.5908C96.3053 16.9489 96.7448 17.4128 97.0703 17.9824C97.3958 18.5358 97.6237 19.1624 97.7539 19.8623C97.9004 20.5459 97.9736 21.2214 97.9736 21.8887C97.9736 23.1745 97.8597 24.4603 97.6318 25.7461C97.404 27.0156 97.0459 28.2526 96.5576 29.457C96.0856 30.6452 95.4834 31.7764 94.751 32.8506C94.0186 33.9085 93.1559 34.8525 92.1631 35.6826C92.0329 35.7965 91.8783 35.9186 91.6992 36.0488C91.5202 36.179 91.333 36.3011 91.1377 36.415C90.9424 36.529 90.7389 36.6266 90.5273 36.708C90.332 36.7894 90.153 36.8301 89.9902 36.8301C89.8112 36.8301 89.6566 36.7894 89.5264 36.708C89.3962 36.6266 89.2822 36.529 89.1846 36.415C89.2171 37.5381 89.2578 38.7018 89.3066 39.9062C89.3717 41.1107 89.445 42.3151 89.5264 43.5195C89.6077 44.7402 89.7054 45.9447 89.8193 47.1328C89.9495 48.321 90.1042 49.4684 90.2832 50.5752C90.332 50.7868 90.3727 51.0065 90.4053 51.2344C90.4541 51.4785 90.4785 51.7227 90.4785 51.9668ZM102.808 29.6523C102.808 30.4336 102.799 31.1497 102.783 31.8008C102.783 32.4518 102.799 33.168 102.832 33.9492L103.271 33.6318L103.54 33.4609C104.338 32.8262 105.029 32.0531 105.615 31.1416C106.217 30.2139 106.714 29.2292 107.104 28.1875C107.495 27.1458 107.78 26.0798 107.959 24.9893C108.154 23.8825 108.252 22.8327 108.252 21.8398C108.252 21.6445 108.244 21.376 108.228 21.0342C108.228 20.6761 108.195 20.3262 108.13 19.9844C108.065 19.6426 107.967 19.3496 107.837 19.1055C107.707 18.8451 107.52 18.7148 107.275 18.7148C106.885 18.7148 106.486 18.9508 106.079 19.4229C105.672 19.8949 105.29 20.4564 104.932 21.1074C104.59 21.7585 104.281 22.4176 104.004 23.085C103.727 23.736 103.524 24.2487 103.394 24.623C103.394 24.6393 103.385 24.6475 103.369 24.6475C103.369 24.6475 103.369 24.6556 103.369 24.6719V24.6963C103.271 24.9242 103.166 25.1683 103.052 25.4287C102.954 25.6891 102.889 25.9333 102.856 26.1611C102.824 26.389 102.799 26.6494 102.783 26.9424C102.767 27.2191 102.759 27.512 102.759 27.8213C102.759 27.984 102.759 28.1468 102.759 28.3096C102.775 28.4561 102.783 28.5944 102.783 28.7246C102.783 28.9036 102.783 29.0745 102.783 29.2373C102.799 29.3838 102.808 29.5221 102.808 29.6523ZM104.15 51.9668C104.15 52.3249 104.053 52.569 103.857 52.6992C103.662 52.8294 103.402 52.8945 103.076 52.8945C102.686 52.8945 102.254 52.8294 101.782 52.6992C101.31 52.5853 100.936 52.3656 100.659 52.04C100.578 51.9261 100.496 51.5924 100.415 51.0391C100.35 50.4857 100.285 49.8346 100.22 49.0859C100.155 48.3535 100.098 47.5885 100.049 46.791C100 46.0098 99.9512 45.318 99.9023 44.7158L99.8047 43.4219C99.6094 39.9388 99.5117 36.4557 99.5117 32.9727C99.5117 30.9382 99.5443 28.9443 99.6094 26.9912C99.6908 25.0218 99.7721 23.028 99.8535 21.0098L99.9512 18.4463C99.9512 18.1859 99.9512 17.9336 99.9512 17.6895C99.9674 17.429 100 17.1768 100.049 16.9326C100.13 16.721 100.228 16.5583 100.342 16.4443C100.472 16.3141 100.675 16.249 100.952 16.249C101.652 16.249 102.165 16.4606 102.49 16.8838C102.816 17.2907 103.003 17.7952 103.052 18.3975C103.573 17.6813 104.191 17.1117 104.907 16.6885C105.64 16.2653 106.478 16.0537 107.422 16.0537C108.219 16.0537 108.887 16.2327 109.424 16.5908C109.977 16.9489 110.417 17.4128 110.742 17.9824C111.068 18.5358 111.296 19.1624 111.426 19.8623C111.572 20.5459 111.646 21.2214 111.646 21.8887C111.646 23.1745 111.532 24.4603 111.304 25.7461C111.076 27.0156 110.718 28.2526 110.229 29.457C109.757 30.6452 109.155 31.7764 108.423 32.8506C107.69 33.9085 106.828 34.8525 105.835 35.6826C105.705 35.7965 105.55 35.9186 105.371 36.0488C105.192 36.179 105.005 36.3011 104.81 36.415C104.614 36.529 104.411 36.6266 104.199 36.708C104.004 36.7894 103.825 36.8301 103.662 36.8301C103.483 36.8301 103.328 36.7894 103.198 36.708C103.068 36.6266 102.954 36.529 102.856 36.415C102.889 37.5381 102.93 38.7018 102.979 39.9062C103.044 41.1107 103.117 42.3151 103.198 43.5195C103.28 44.7402 103.377 45.9447 103.491 47.1328C103.621 48.321 103.776 49.4684 103.955 50.5752C104.004 50.7868 104.045 51.0065 104.077 51.2344C104.126 51.4785 104.15 51.7227 104.15 51.9668Z" fill="#9747FF"/>
</svg>
